<?xml version="1.0" encoding="utf-8"?>
<!-- Generator: Adobe Illustrator 24.0.3, SVG Export Plug-In . SVG Version: 6.00 Build 0)  -->
<svg version="1.1" id="Layer_1" xmlns="http://www.w3.org/2000/svg" xmlns:xlink="http://www.w3.org/1999/xlink" x="0px" y="0px"
	 viewBox="0 0 2264.6 1015.8" style="enable-background:new 0 0 2264.6 1015.8;" xml:space="preserve">
<style type="text/css">
	.st0{enable-background:new    ;}
	.st1{fill:#E7EAF2;}
	.st2{fill:none;stroke:#000000;stroke-width:2;stroke-miterlimit:10;}
	.st3{fill:none;stroke:#000000;stroke-width:6;stroke-miterlimit:10;}
</style>
<g>
	<g class="st0">
		<g>
			<polyline class="st1" points="2121.9,302.7 2121.9,303.3 2148.7,317.9 2154.9,354.2 2132.2,367.9 2108.9,334.1 2108.6,334.4 
				2132.1,368.6 2155.2,354.6 2155.4,354.6 2149,317.8 2148.9,317.6 2121.9,302.7 			"/>
		</g>
	</g>
</g>
<g>
	<g class="st0">
		<g>
			<polyline class="st1" points="2119.2,296.9 2102.8,334.4 2102.7,334.6 2131.6,376.2 2159,358.7 2159.1,358.7 2151.4,315.2 
				2151.1,315.1 2158.7,358.3 2131.7,375.4 2103.3,334.6 2119.6,297.3 2119.2,296.9 			"/>
		</g>
	</g>
</g>
<g>
	<g class="st0">
		<g>
			<polyline class="st1" points="2116.2,289.7 2095.7,334.8 2095.7,335 2131,385.3 2163.4,363.5 2163.2,363 2131.1,384.6 
				2096.3,335 2116.5,290.4 2154.2,312.4 2154.2,311.9 2116.2,289.7 			"/>
		</g>
	</g>
</g>
<g>
	<g class="st0">
		<g>
			<polyline class="st1" points="2112.6,281.2 2086.9,335.4 2086.8,335.5 2130.3,396.5 2130.6,396.1 2087.4,335.6 2112.9,281.9 
				2157.4,308.9 2168.3,368.9 2168.6,368.9 2157.7,308.8 2157.7,308.6 2112.6,281.2 			"/>
		</g>
	</g>
</g>
<g>
	<g class="st0">
		<g>
			<polyline class="st1" points="2108.2,271 2075.5,335.9 2076,336.4 2108.5,271.7 2161.2,305 2174.2,375.2 2129.4,410 
				2129.7,410.6 2174.4,375.7 2174.5,375.6 2161.4,304.9 2161.4,304.8 2108.2,271 			"/>
		</g>
	</g>
</g>
<g>
	<g class="st0">
		<g>
			<polyline class="st1" points="2103.2,258.5 2103,259.9 2165.1,301 2180.5,382.5 2128.6,426.3 2061.8,336.2 2060.4,337.5 
				2128.4,428.8 2181.5,383.4 2165.8,300.2 2103.2,258.5 			"/>
		</g>
	</g>
</g>
<g>
	<g class="st0">
		<g>
			<polyline class="st1" points="2096.5,244.3 2041.6,337.4 2041.5,337.6 2127.1,449.4 2127.2,449.6 2188.6,391.8 2188.7,391.7 
				2170.2,295.9 2169.9,295.8 2188.4,391.4 2127.3,448.7 2042.4,337.7 2096.9,244.7 2096.5,244.3 			"/>
		</g>
	</g>
</g>
<g>
	<g class="st0">
		<g>
			<polyline class="st1" points="2089.1,226.6 2015.8,338.4 2015.7,338.6 2125.6,476.7 2125.7,476.9 2197.1,401.5 2197,401.1 
				2125.8,475.9 2016.7,338.6 2089.3,227.3 2175,290.8 2175,290.4 2089.1,226.6 			"/>
		</g>
	</g>
</g>
<g>
	<g class="st0">
		<g>
			<polyline class="st1" points="2080,205.5 1979.8,339.5 1979.6,339.8 2123.8,511.7 2124.1,511 1980.8,339.8 2080.3,206.2 
				2180.4,285.1 2206.4,412.5 2206.7,412.4 2180.6,285.1 2180.6,284.9 2080.2,205.6 2080,205.5 			"/>
		</g>
	</g>
</g>
<g>
	<g class="st0">
		<g>
			<polyline class="st1" points="2069.1,180.1 1926.9,340.6 1927.9,341.2 2069.4,180.8 2186.1,279.3 2216.7,424.8 2121.6,556.4 
				2121.9,557 2217,425.1 2217,425 2186.3,279.2 2186.2,279.1 2069.3,180.3 2069.1,180.1 			"/>
		</g>
	</g>
</g>
<g>
	<g class="st0">
		<g>
			<polyline class="st1" points="2056.2,149.9 2056.1,150.2 2191.9,273.3 2227.8,438.6 2119,616.1 1845.1,341.7 1843.7,342.4 
				2118.8,617.2 2119,617.4 2228,438.9 2228,438.8 2192,273.3 2192,273.2 2056.2,149.9 			"/>
		</g>
	</g>
</g>
<g>
	<g class="st0">
		<g>
			<polyline class="st1" points="2040.2,113.3 1696.4,342.3 1695.8,342.7 2115.4,699 2115.6,699.1 2239.6,454 2239.7,453.9 
				2197.7,267.3 2197.5,267.2 2239.4,453.7 2115.6,697.6 1699.1,342.8 2040.7,113.9 2040.2,113.3 			"/>
		</g>
	</g>
</g>
<g>
	<g class="st0">
		<g>
			<polyline class="st1" points="2021.2,68.9 1362.3,341.6 2110.8,815.9 2111.4,816.2 2251.6,470.7 2251.2,469.7 2111.6,810.8 
				1384.1,342 2022,71 2203,261.9 2202.9,261.1 2021.8,69.5 2021.2,68.9 			"/>
		</g>
	</g>
</g>
<g>
	<g class="st0">
		<g>
			<polyline class="st1" points="1999.1,16.8 24.3,327.6 15.5,328.9 2106.1,988.8 2106.6,986.5 54.7,329.6 1999.4,17.6 
				2208.5,256.3 2264.1,488.2 2264.2,488.1 2208.6,256.3 2208.5,256.2 1999.3,17.1 1999.1,16.8 			"/>
		</g>
	</g>
</g>
<polyline class="st2" points="4126.7,3249.2 4169.5,3380.7 4307.7,3380.7 4350.5,3249.2 4238.6,3167.9 "/>
<polyline class="st2" points="4238.6,3146.6 4104.3,3244.2 4155.6,3402 4321.6,3402 4372.8,3244.2 "/>
<polyline class="st2" points="4399.7,3238.2 4238.6,3121.1 4077.5,3238.2 4139,3427.5 4338.2,3427.5 "/>
<polyline class="st2" points="4358.1,3458.2 4431.9,3230.9 4238.6,3090.5 4045.3,3230.9 4119.1,3458.2 "/>
<polyline class="st2" points="4095.2,3494.9 4382,3494.9 4470.6,3222.2 4238.6,3053.7 4006.6,3222.2 "/>
<polyline class="st3" points="3960.2,3211.8 4066.5,3539.1 4410.6,3539.1 4517,3211.8 4238.6,3009.6 "/>
<polyline class="st2" points="4238.6,2956.6 3904.5,3199.3 4032.1,3592 4445,3592 4572.6,3199.3 "/>
<polyline class="st2" points="4639.5,3184.3 4238.6,2893.1 3837.7,3184.3 3990.8,3655.6 4486.3,3655.6 "/>
<polyline class="st2" points="4535.9,3731.8 4719.6,3166.3 4238.6,2816.8 3757.6,3166.3 3941.3,3731.8 "/>
<polyline class="st2" points="3881.8,3823.3 4595.3,3823.3 4815.8,3144.7 4238.6,2725.3 3661.4,3144.7 "/>
<polyline class="st2" points="3545.9,3118.8 3810.5,3933.1 4666.7,3933.1 4931.3,3118.8 4238.6,2615.5 "/>
<polyline class="st2" points="4238.6,2483.8 3407.4,3087.7 3724.9,4064.9 4752.3,4064.9 5069.8,3087.7 "/>
<polyline class="st3" points="5236.1,3050.4 4238.6,2325.7 3241.1,3050.4 3622.1,4223 4855.1,4223 "/>
<polyline class="st2" points="4979.1,4413 5436.3,3005.9 4239.3,2136.3 3042.3,3005.9 3499.5,4413 "/>
<path d="M4296,3242.4l-52.3-21.8c-3.2-1.3-6.8-1.3-10.1,0l-52.3,21.8c-4.9,2-8.1,6.8-8.1,12.1c0,54.1,31.2,91.5,60.4,103.6
	c3.2,1.3,6.8,1.3,10.1,0c23.4-9.7,60.4-43.3,60.4-103.6C4304,3249.2,4300.8,3244.4,4296,3242.4z M4238.6,3341.2v-103.8l47.9,20
	C4285.6,3298.6,4264.2,3328.5,4238.6,3341.2L4238.6,3341.2z"/>
</svg>
