<?xml version="1.0" encoding="utf-8"?>
<!-- Generator: Adobe Illustrator 24.0.3, SVG Export Plug-In . SVG Version: 6.00 Build 0)  -->
<svg version="1.1" id="Layer_1" xmlns="http://www.w3.org/2000/svg" xmlns:xlink="http://www.w3.org/1999/xlink" x="0px" y="0px"
	 viewBox="0 0 2000 400" style="enable-background:new 0 0 2000 400;" xml:space="preserve">
<style type="text/css">
	.st0{enable-background:new    ;}
	.st1{fill:#001D84;}
	.st2{fill:none;stroke:#000000;stroke-width:2;stroke-miterlimit:10;}
	.st3{fill:none;stroke:#000000;stroke-width:6;stroke-miterlimit:10;}
</style>
<g>
	<g class="st0">
		<g>
			<polyline class="st1" points="1857.3,175 1857.3,175.6 1884.1,190.2 1890.3,226.5 1867.6,240.2 1844.3,206.4 1844,206.7 
				1867.5,240.9 1890.6,226.9 1890.8,226.9 1884.4,190.1 1884.3,189.9 1857.3,175 			"/>
		</g>
	</g>
</g>
<g>
	<g class="st0">
		<g>
			<polyline class="st1" points="1854.6,169.2 1838.2,206.7 1838.1,206.9 1867,248.5 1894.4,231 1894.5,231 1886.8,187.5 
				1886.5,187.4 1894.1,230.6 1867.1,247.7 1838.7,206.9 1855,169.6 1854.6,169.2 			"/>
		</g>
	</g>
</g>
<g>
	<g class="st0">
		<g>
			<polyline class="st1" points="1851.6,162 1831.1,207.1 1831.1,207.3 1866.4,257.6 1898.8,235.8 1898.6,235.3 1866.5,256.9 
				1831.7,207.3 1851.9,162.7 1889.6,184.7 1889.6,184.2 1851.6,162 			"/>
		</g>
	</g>
</g>
<g>
	<g class="st0">
		<g>
			<polyline class="st1" points="1848,153.5 1822.3,207.7 1822.2,207.8 1865.7,268.8 1866,268.4 1822.8,207.9 1848.3,154.2 
				1892.8,181.2 1903.7,241.2 1904,241.2 1893.1,181.1 1893.1,180.9 1848,153.5 			"/>
		</g>
	</g>
</g>
<g>
	<g class="st0">
		<g>
			<polyline class="st1" points="1843.6,143.3 1810.9,208.2 1811.4,208.7 1843.9,144 1896.6,177.3 1909.6,247.5 1864.8,282.3 
				1865.1,282.9 1909.8,248 1909.9,247.9 1896.8,177.2 1896.8,177.1 1843.6,143.3 			"/>
		</g>
	</g>
</g>
<g>
	<g class="st0">
		<g>
			<polyline class="st1" points="1838.6,130.8 1838.4,132.2 1900.5,173.3 1915.9,254.8 1864,298.6 1797.2,208.5 1795.8,209.8 
				1863.8,301.1 1916.9,255.7 1901.2,172.5 1838.6,130.8 			"/>
		</g>
	</g>
</g>
<g>
	<g class="st0">
		<g>
			<polyline class="st1" points="1831.9,116.6 1777,209.7 1776.9,209.9 1862.5,321.7 1862.6,321.9 1924,264.1 1924.1,264 
				1905.6,168.2 1905.3,168.1 1923.8,263.7 1862.7,321 1777.8,210 1832.3,117 1831.9,116.6 			"/>
		</g>
	</g>
</g>
<g>
	<g class="st0">
		<g>
			<polyline class="st1" points="1824.5,98.9 1751.2,210.7 1751.1,210.9 1861,349 1861.1,349.2 1932.5,273.8 1932.4,273.4 
				1861.2,348.2 1752.1,210.9 1824.7,99.6 1910.4,163.1 1910.4,162.7 1824.5,98.9 			"/>
		</g>
	</g>
</g>
<g>
	<g class="st0">
		<g>
			<polyline class="st1" points="1815.4,77.8 1715.2,211.8 1715,212.1 1859.2,384 1859.5,383.3 1716.2,212.1 1815.7,78.5 
				1915.8,157.4 1941.8,284.8 1942.1,284.7 1916,157.4 1916,157.2 1815.6,77.9 1815.4,77.8 			"/>
		</g>
	</g>
</g>
<g>
	<g class="st0">
		<g>
			<polyline class="st1" points="1804.5,52.4 1662.3,212.9 1663.3,213.5 1804.8,53.1 1921.5,151.6 1952.1,297.1 1857,428.7 
				1857.3,429.3 1952.4,297.4 1952.4,297.3 1921.7,151.5 1921.6,151.4 1804.7,52.6 1804.5,52.4 			"/>
		</g>
	</g>
</g>
<g>
	<g class="st0">
		<g>
			<polyline class="st1" points="1791.6,22.2 1791.5,22.5 1927.3,145.6 1963.2,310.9 1854.4,488.4 1580.5,214 1579.1,214.7 
				1854.2,489.5 1854.4,489.7 1963.4,311.2 1963.4,311.1 1927.4,145.6 1927.4,145.5 1791.6,22.2 			"/>
		</g>
	</g>
</g>
<g>
	<g class="st0">
		<g>
			<polyline class="st1" points="1775.6,-14.4 1431.8,214.6 1431.2,215 1850.8,571.3 1851,571.4 1975,326.3 1975.1,326.2 
				1933.1,139.6 1932.9,139.5 1974.8,326 1851,569.9 1434.5,215.1 1776.1,-13.8 1775.6,-14.4 			"/>
		</g>
	</g>
</g>
<g>
	<g class="st0">
		<g>
			<polyline class="st1" points="1756.6,-58.8 1097.7,213.9 1846.2,688.2 1846.8,688.5 1987,343 1986.6,342 1847,683.1 
				1119.5,214.3 1757.4,-56.7 1938.4,134.2 1938.3,133.4 1757.2,-58.2 1756.6,-58.8 			"/>
		</g>
	</g>
</g>
<g>
	<g class="st0">
		<g>
			<polyline class="st1" points="1734.5,-110.9 -240.3,199.9 -249.1,201.2 1841.5,861.1 1842,858.8 -209.9,201.9 1734.8,-110.1 
				1943.9,128.6 1999.5,360.5 1999.6,360.4 1944,128.6 1943.9,128.5 1734.7,-110.6 1734.5,-110.9 			"/>
		</g>
	</g>
</g>
<g>
	<g class="st0">
		<g>
			<path class="st1" d="M1875.2,222.8l-10.9-28.3l10.3,2.1c1,2.7,1.7,5.4,2.2,7.9c0.5,2.5,0.7,4.9,0.7,7.1c0,2.2-0.2,4.3-0.6,6.2
				C1876.5,219.7,1875.9,221.4,1875.2,222.8 M1863,189.6c-0.1,0-0.3,0-0.4,0c-0.1,0-0.3,0.1-0.4,0.1c-0.1,0.1-0.2,0.1-0.3,0.2
				c-0.1,0.1-0.2,0.2-0.3,0.3l-7.5,9.9c-0.2,0.2-0.3,0.5-0.4,0.8c-0.1,0.3-0.2,0.7-0.2,1c0,0.4,0,0.7,0.1,1.1
				c0.1,0.4,0.2,0.8,0.3,1.2c1.5,3.9,3.3,7.3,5.2,10.2c1.9,2.9,3.9,5.3,5.9,7.3c2,1.9,4,3.4,5.9,4.4c1.9,1,3.7,1.6,5.2,1.7
				c0,0,0.1,0,0.1,0s0.1,0,0.1,0c0,0,0.1,0,0.1,0c0,0,0.1,0,0.1,0c0.1,0,0.3-0.1,0.4-0.1c0.1,0,0.2-0.1,0.3-0.2
				c0.1-0.1,0.2-0.2,0.3-0.3c0.1-0.1,0.2-0.2,0.3-0.4c0.7-1.2,1.4-2.9,2-4.9c0.5-2,0.9-4.5,1.1-7.2c0.1-2.7,0-5.8-0.6-9.2
				c-0.6-3.3-1.5-7-3-10.9c-0.1-0.3-0.3-0.7-0.5-1c-0.2-0.3-0.4-0.6-0.6-0.8c-0.2-0.2-0.5-0.4-0.7-0.6c-0.2-0.1-0.5-0.3-0.7-0.3
				l-11.2-2.4c0,0-0.1,0-0.1,0c0,0-0.1,0-0.1,0S1863.1,189.6,1863,189.6C1863.1,189.6,1863,189.6,1863,189.6"/>
		</g>
	</g>
</g>
<polyline class="st2" points="3862.1,3121.5 3904.9,3253 4043.1,3253 4085.9,3121.5 3974,3040.2 "/>
<polyline class="st2" points="3974,3018.9 3839.7,3116.5 3891,3274.3 4057,3274.3 4108.2,3116.5 "/>
<polyline class="st2" points="4135.1,3110.5 3974,2993.4 3812.9,3110.5 3874.4,3299.8 4073.6,3299.8 "/>
<polyline class="st2" points="4093.5,3330.5 4167.3,3103.2 3974,2962.8 3780.7,3103.2 3854.5,3330.5 "/>
<polyline class="st2" points="3830.6,3367.2 4117.4,3367.2 4206,3094.5 3974,2926 3742,3094.5 "/>
<polyline class="st3" points="3695.6,3084.1 3801.9,3411.4 4146,3411.4 4252.4,3084.1 3974,2881.9 "/>
<polyline class="st2" points="3974,2828.9 3639.9,3071.6 3767.5,3464.3 4180.4,3464.3 4308,3071.6 "/>
<polyline class="st2" points="4374.9,3056.6 3974,2765.4 3573.1,3056.6 3726.2,3527.9 4221.7,3527.9 "/>
<polyline class="st2" points="4271.3,3604.1 4455,3038.6 3974,2689.1 3493,3038.6 3676.7,3604.1 "/>
<polyline class="st2" points="3617.2,3695.6 4330.7,3695.6 4551.2,3017 3974,2597.6 3396.8,3017 "/>
<polyline class="st2" points="3281.3,2991.1 3545.9,3805.4 4402.1,3805.4 4666.7,2991.1 3974,2487.8 "/>
<polyline class="st2" points="3974,2356.1 3142.8,2960 3460.3,3937.2 4487.7,3937.2 4805.2,2960 "/>
<polyline class="st3" points="4971.5,2922.7 3974,2198 2976.5,2922.7 3357.5,4095.3 4590.5,4095.3 "/>
<polyline class="st2" points="4714.5,4285.3 5171.7,2878.2 3974.7,2008.6 2777.7,2878.2 3234.9,4285.3 "/>
<path d="M4031.4,3114.7l-52.3-21.8c-3.2-1.3-6.8-1.3-10.1,0l-52.3,21.8c-4.9,2-8.1,6.8-8.1,12.1c0,54.1,31.2,91.5,60.4,103.6
	c3.2,1.3,6.8,1.3,10.1,0c23.4-9.7,60.4-43.3,60.4-103.6C4039.4,3121.5,4036.2,3116.7,4031.4,3114.7z M3974,3213.5l0-103.8l47.9,20
	C4021,3170.9,3999.6,3200.8,3974,3213.5L3974,3213.5z"/>
</svg>
