<?xml version="1.0" encoding="utf-8"?>
<!-- Generator: Adobe Illustrator 24.0.3, SVG Export Plug-In . SVG Version: 6.00 Build 0)  -->
<svg version="1.1" id="Layer_1" xmlns="http://www.w3.org/2000/svg" xmlns:xlink="http://www.w3.org/1999/xlink" x="0px" y="0px"
	 viewBox="0 0 100 100" style="enable-background:new 0 0 100 100;" xml:space="preserve">
<style type="text/css">
	.st0{fill:#0000AA;}
</style>
<path class="st0" d="M67.4,42.4h-2.3v-7c0-8.1-6.6-14.7-14.7-14.7s-14.7,6.6-14.7,14.7v7h-2.3c-2.6,0-4.6,2.1-4.6,4.6v18.6
	c0,2.6,2.1,4.6,4.6,4.6h34c2.6,0,4.6-2.1,4.6-4.6V47C72.1,44.4,70,42.4,67.4,42.4z M57.4,42.4H43.4v-7c0-3.8,3.1-7,7-7s7,3.1,7,7
	V42.4z"/>
</svg>
