<svg version="1.1" xmlns="http://www.w3.org/2000/svg" xmlns:xlink="http://www.w3.org/1999/xlink" x="0px" y="0px" viewBox="0 0 200 200" enable-background="new 0 0 200 200" xml:space="preserve">
	<g id="background" display="none"><rect display="inline" width="200" height="200"/></g>
	<g id="header_admin" class="header-icon">
		<path d="M125.2,80.5l-50,50c6.8,14.3,4.4,31.8-7.4,43.6c-15,15-39.3,15-54.3,0c-15-15-15-39.4,0-54.4c11.8-11.8,29.4-14.2,43.6-7.4
			l95.3-95.3c5-5,13.1-5,18.1,0c5,5,5,13.1,0,18.1l-15.1,15.1l12.1,12.1c0,0,6-6,12.1,0l18.1,18.1l-12.1,12.1l-12.1-12.1l-18.1,18.1
			l12.1,12.1l-12.1,12.1l-18.1-18.1c-6-6,0-12.1,0-12.1L125.2,80.5L125.2,80.5z M49.7,155.9c5-5,5-13.1,0-18.1c-5-5-13.1-5-18.1,0
			c-5,5-5,13.1,0,18.1C36.6,160.9,44.7,160.9,49.7,155.9z"/>
	</g>
</svg>