<svg version="1.1" xmlns="http://www.w3.org/2000/svg" xmlns:xlink="http://www.w3.org/1999/xlink" x="0px" y="0px" viewBox="0 0 720 720" enable-background="new 0 0 720 720" xml:space="preserve" class="social-icon-wrapper">
	<g id="social-twitter" class="social-icon-bg"><rect width="720" height="720"/></g>
	<g id="twitter-logo">
		<g>
			<path fill="#FFFFFF" d="M121.5,514.4c51.3,2.1,97.2-10.7,140-42.6c-45-4.8-74.9-26.6-90.9-68.5c14.2,0,27,0,39.8,0
				c0.3-0.7,0.6-1.4,0.8-2.2c-46.7-15.1-71.9-46.5-75.2-95.2c13.7,3.8,26.6,7.3,39.4,10.9c0.5-0.9,1-1.9,1.5-2.8
				c-23.2-18.7-37.6-42.2-39.5-72.2C136,219,140.5,201,150.7,186C203.6,247.5,270,282,350.3,287.3c0.7-14.5-0.5-28.4,2.2-41.5
				c7.5-36.4,29.8-61.3,64.8-73.3c35.2-12,67.7-4.7,95.8,19.5c5.5,4.7,10,6.2,16.6,3.7c16.7-6.2,33.6-12.1,50.9-18.3
				c-6.6,20.2-19.8,35.7-36.3,50.3c8.1-1.6,16.3-2.9,24.3-5c8-2.2,15.8-5.2,25.5-8.5c-10.7,16.9-22.9,30.2-37.4,41.2
				c-7.4,5.6-9.9,11.4-10.2,20.8c-3.4,102.3-44.7,185.9-132.9,239.1c-94.5,57-192.8,54.9-289.4,1
				C123.2,515.9,122.4,515.1,121.5,514.4z"/>
		</g>
	</g>
</svg>