<svg version="1.1" xmlns="http://www.w3.org/2000/svg" xmlns:xlink="http://www.w3.org/1999/xlink" x="0px" y="0px" viewBox="0 0 720 720" enable-background="new 0 0 720 720" xml:space="preserve" class="social-icon-wrapper">
	<g id="social-linked-in" class="social-icon-bg"><rect width="720" height="720"/></g>
	<g id="linked-in-logo">
		<g id="Cv0wTI.tif">
			<g>
				<path fill="#FFFFFF" d="M296.7,568.1c0-5.2,0.1-10.4,0.1-15.7c0.1-28.1,0.2-56.2,0.3-84.3c0-14.2,0.1-28.4,0.1-42.6
					c0-26.1,0.1-52.2,0.1-78.4c0-17.9-0.2-35.8-0.3-53.7c0-2.2,0-4.4,0-6.7c1.1-0.3,90.9-0.4,93.3-0.1c0,12.9,0,25.9,0,38.8
					c0.1,0,0.2,0.1,0.3,0.1c0.3-0.5,0.7-0.9,1-1.4c5-7.5,10.6-14.5,17.2-20.6c12.1-11.2,26.3-18.2,42.4-21.5
					c11.3-2.3,22.7-2.7,34.2-1.8c12.3,1,24.2,3.7,35.5,8.8c19.9,8.9,34.6,23.2,44.9,42.3c6.1,11.3,10,23.3,12.6,35.9
					c1.4,6.9,2.3,13.9,2.9,20.9c0.1,1.4,0.1,2.7,0.2,4.1c0,0.7,0.2,1.3,0.3,2c0,57.9,0,115.9,0,173.8c-31.1,0-62.3,0-93.4,0
					c0-0.7,0.1-1.5,0.1-2.2c0-49.9,0-99.7,0-149.6c0-7-0.5-14-1.8-20.8c-1.4-7.4-3.5-14.4-7.2-21c-5.3-9.2-12.9-15.6-23.1-18.6
					c-8.6-2.5-17.3-2.8-26.1-0.9c-10.8,2.3-19.7,7.9-26.9,16.3c-5.4,6.3-9.5,13.3-11.5,21.4c-1.4,5.4-1.6,11-1.6,16.6
					c0,52.4,0,104.7,0,157.1c0,0.6,0.1,1.2,0.1,1.9C359.2,568.1,327.9,568.1,296.7,568.1z"/>
				<path fill="#FFFFFF" d="M151.5,568.1c0-1,0-1.9,0-2.9c0-92,0-184,0-276c0-0.8,0-1.6,0-2.5c31.2,0,62.2,0,93.4,0
					c0,0.4,0.1,0.9,0.1,1.3c0,0.5,0,1,0,1.5c0,92,0,184,0,276c0,0.8-0.1,1.7-0.1,2.5C213.8,568.1,182.6,568.1,151.5,568.1z"/>
				<path fill="#FFFFFF" d="M203.6,151c1.6,0.2,3.2,0.4,4.8,0.7c8,1.2,15.5,3.7,22.3,8.4c10.1,6.9,16.3,16.4,19,28.3
					c2.7,11.5,1.7,22.6-3.6,33.2c-5.8,11.6-15.1,19.2-27.3,23.5c-9.1,3.2-18.5,3.9-28,2.9c-8.4-0.8-16.3-3.3-23.5-8
					c-11.5-7.5-18.3-18-20.7-31.5c-0.3-1.7-0.7-3.3-1-5c0-2.6,0-5.2,0-7.8c0.2-0.8,0.5-1.6,0.6-2.4c1.7-13.2,7.8-23.9,18.5-31.9
					c7.3-5.4,15.5-8.4,24.4-9.6c1.6-0.2,3.2-0.4,4.8-0.7C197.3,151,200.5,151,203.6,151z"/>
			</g>
		</g>
	</g>
</svg>