<svg version="1.1" xmlns="http://www.w3.org/2000/svg" xmlns:xlink="http://www.w3.org/1999/xlink" x="0px" y="0px"
	 viewBox="0 0 720 720" enable-background="new 0 0 720 720" xml:space="preserve" class="social-icon-wrapper">
					<g id="social-facebook" class="social-icon-bg">
						<rect width="720" height="720"/>
					</g>
					<g id="facebook-logo">
								<path fill="#fff" d="M216.8,373.9c0-32.2,0-64.4,0-96.7c0.1,0,0.3,0,0.4,0c22.9,0,45.8,0,68.6,0c0.3,0,0.6-0.1,0.9-0.1
									c0-0.5,0-1,0-1.5c0-26.5,0-53,0-79.4c0-11.3,1.3-22.5,4.1-33.5c8.8-33.7,28.5-58.6,59.7-74.1c18.9-9.4,39.1-13.6,60-14.9
									c2.4-0.2,4.8-0.3,7.3-0.4c5.3,0,10.6,0,15.9,0c0.5,0,1,0.1,1.5,0.1c7.6,0.3,15.1,0.4,22.7,0.8c8.5,0.5,16.9,1.2,25.4,1.9
									c2.8,0.2,5.5,0.6,8.3,0.9c-0.8,30.1-1.5,60.2-2.3,90.2c-0.6,0-1,0-1.4,0c-20-0.1-40-0.2-60-0.3c-5.8,0-11.6,0.4-17.3,1.8
									c-10.7,2.7-17.5,9.2-20.1,20c-1.5,6.3-1.8,12.8-1.9,19.3c0,22.6,0,45.2,0,67.9c0,0.4,0,0.8,0,1.3c34.5,0,68.9,0,103.4,0
									c-1.5,32.3-3,64.4-4.6,96.6c-33,0-65.9,0-98.9,0c0,88.2,0,176.3,0,264.3c-34.1,0-68,0-102,0c0-88.1,0-176.2,0-264.4
									c-0.5,0-0.8,0-1.2,0c-22.5,0-45,0-67.5,0C217.6,373.8,217.2,373.9,216.8,373.9z"/>
							</g>
				</svg>
