<svg version="1.1" xmlns="http://www.w3.org/2000/svg" xmlns:xlink="http://www.w3.org/1999/xlink" x="0px" y="0px" viewBox="0 0 720 720" enable-background="new 0 0 720 720" xml:space="preserve" class="social-icon-wrapper">
	<g id="social-google-plus" class="social-icon-bg"><rect width="720" height="720"/></g>
	<g id="google-plus-logo">
		<g id="gmn1ZL.tif">
			<g>
				<path fill="#FFFFFF" d="M276,389.8c-8.2-14.4-22.3-26.5-14.1-44.8c-14.2-1.5-26.3-1.7-37.8-4.2c-46-9.9-70.5-54.9-57.1-103.8
					c6.7-24.5,21.4-42.5,44-54c21.4-10.8,43.9-16.9,68.1-16.7c31.2,0.3,62.4,0.1,93.6,0.1c3.3,0,6.5,0,9.8,0c0.3,1.2,0.5,2.4,0.8,3.7
					c-12.6,13.1-32.4,6.4-47.3,13.9c42.8,37.5,42.1,95.7-1.2,132.7c-6.3,5.3-12.7,10.5-18.4,16.4c-8.2,8.4-8.9,17.1-0.5,25.3
					c12.4,12.2,26.1,23.2,39,34.9c17.6,16.1,29.4,35.4,29.6,59.9c0.3,38.3-16.7,67.6-51.2,83.4c-48.3,22-98.8,22.7-147.8,2.4
					c-53.7-22.3-52.8-80.1-30.1-108.5c16.2-20.2,39.1-28.4,63.3-33C236.8,393.9,255.3,392.4,276,389.8z M266.3,409
					c-20.8,0.1-44.4,6.8-63.3,25.3c-22.4,21.9-20.5,51.9,3.8,71.4c33.7,27,94.3,24.4,125.5-5.4c23.1-22.1,22.2-51.9-2.6-72.2
					C312.9,414.3,293,409.1,266.3,409z M212.5,235.3c2.4,36.3,12,62.9,39.2,79.8c19.9,12.4,41.9,6.8,54.3-12.9
					c21.7-34.5,4.2-95-32.6-112.5c-19.1-9.1-39.4-4.2-49.8,14.4C217.5,215.1,215,228.1,212.5,235.3z"/>
				<path fill="#FFFFFF" d="M513.2,338.7c-8.4,0-15.4,0-23.6,0c0-24.9,0-49.4,0-74.9c-25.6,0-50.1,0-75.2,0c0-8,0-15,0-22.9
					c24.9,0,49.4,0,74.9,0c0-25,0-49.2,0-74c8,0,15,0,23.3,0c0,24,0,48.1,0,73.3c25.7,0,50.1,0,75.3,0c0,8.1,0,15,0,23.3
					c-24.5,0-48.9,0-74.7,0C513.2,289.3,513.2,313.8,513.2,338.7z"/>
			</g>
		</g>
	</g>
</svg>